{
 "cells": [
  {
   "cell_type": "code",
   "execution_count": 2,
   "id": "ce6e432b",
   "metadata": {},
   "outputs": [],
   "source": [
    "import ffmpeg\n",
    "import subprocess"
   ]
  },
  {
   "cell_type": "code",
   "execution_count": 7,
   "id": "ae541a7f",
   "metadata": {},
   "outputs": [],
   "source": [
    "input_file = \"./test/frieren_clip1.mp4\"\n",
    "output_file=\"./test/test_frieren_out.mp4\""
   ]
  },
  {
   "cell_type": "markdown",
   "id": "1d883c72",
   "metadata": {},
   "source": [
    "#### NOTES\n",
    "\n",
    "- -b adjusts bitrate, has :v at the end cuz its for video, :a for audio\n",
    "- -c copies stream, it says \"do not re-encode anything, just copy existing streams\", so it ignores things like bitrate and anything that encodes. Good for copying exact quality and streams onto new videos"
   ]
  },
  {
   "cell_type": "code",
   "execution_count": null,
   "id": "a7ef7799",
   "metadata": {},
   "outputs": [
    {
     "name": "stdout",
     "output_type": "stream",
     "text": [
      "Running: ffmpeg -y -i ./test/frieren_clip1.mp4 -b:v 256k bufsize 64k ./test/test_frieren_out.mp4\n"
     ]
    },
    {
     "data": {
      "text/plain": [
       "CompletedProcess(args=['ffmpeg', '-y', '-i', './test/frieren_clip1.mp4', '-b:v', '256k', 'bufsize', '64k', './test/test_frieren_out.mp4'], returncode=4294967274, stdout='', stderr=\"ffmpeg version 8.0-full_build-www.gyan.dev Copyright (c) 2000-2025 the FFmpeg developers\\n  built with gcc 15.2.0 (Rev8, Built by MSYS2 project)\\n  configuration: --enable-gpl --enable-version3 --enable-static --disable-w32threads --disable-autodetect --enable-fontconfig --enable-iconv --enable-gnutls --enable-lcms2 --enable-libxml2 --enable-gmp --enable-bzlib --enable-lzma --enable-libsnappy --enable-zlib --enable-librist --enable-libsrt --enable-libssh --enable-libzmq --enable-avisynth --enable-libbluray --enable-libcaca --enable-libdvdnav --enable-libdvdread --enable-sdl2 --enable-libaribb24 --enable-libaribcaption --enable-libdav1d --enable-libdavs2 --enable-libopenjpeg --enable-libquirc --enable-libuavs3d --enable-libxevd --enable-libzvbi --enable-liboapv --enable-libqrencode --enable-librav1e --enable-libsvtav1 --enable-libvvenc --enable-libwebp --enable-libx264 --enable-libx265 --enable-libxavs2 --enable-libxeve --enable-libxvid --enable-libaom --enable-libjxl --enable-libvpx --enable-mediafoundation --enable-libass --enable-frei0r --enable-libfreetype --enable-libfribidi --enable-libharfbuzz --enable-liblensfun --enable-libvidstab --enable-libvmaf --enable-libzimg --enable-amf --enable-cuda-llvm --enable-cuvid --enable-dxva2 --enable-d3d11va --enable-d3d12va --enable-ffnvcodec --enable-libvpl --enable-nvdec --enable-nvenc --enable-vaapi --enable-libshaderc --enable-vulkan --enable-libplacebo --enable-opencl --enable-libcdio --enable-openal --enable-libgme --enable-libmodplug --enable-libopenmpt --enable-libopencore-amrwb --enable-libmp3lame --enable-libshine --enable-libtheora --enable-libtwolame --enable-libvo-amrwbenc --enable-libcodec2 --enable-libilbc --enable-libgsm --enable-liblc3 --enable-libopencore-amrnb --enable-libopus --enable-libspeex --enable-libvorbis --enable-ladspa --enable-libbs2b --enable-libflite --enable-libmysofa --enable-librubberband --enable-libsoxr --enable-chromaprint --enable-whisper\\n  libavutil      60.  8.100 / 60.  8.100\\n  libavcodec     62. 11.100 / 62. 11.100\\n  libavformat    62.  3.100 / 62.  3.100\\n  libavdevice    62.  1.100 / 62.  1.100\\n  libavfilter    11.  4.100 / 11.  4.100\\n  libswscale      9.  1.100 /  9.  1.100\\n  libswresample   6.  1.100 /  6.  1.100\\nInput #0, mov,mp4,m4a,3gp,3g2,mj2, from './test/frieren_clip1.mp4':\\n  Metadata:\\n    major_brand     : isom\\n    minor_version   : 512\\n    compatible_brands: isomiso2avc1mp41\\n    encoder         : Lavf59.10.100\\n  Duration: 00:00:23.94, start: 0.000000, bitrate: 4636 kb/s\\n  Stream #0:0[0x1](und): Video: h264 (High) (avc1 / 0x31637661), yuv420p(tv, bt709, progressive), 854x480 [SAR 1:1 DAR 427:240], 4634 kb/s, 23.98 fps, 23.98 tbr, 23976 tbn (default)\\n    Metadata:\\n      handler_name    : VideoHandler\\n      vendor_id       : [0][0][0][0]\\n[AVFormatContext @ 000002494f088100] Unable to choose an output format for 'bufsize'; use a standard extension for the filename or specify the format manually.\\n[out#0 @ 000002494f08aa00] Error initializing the muxer for bufsize: Invalid argument\\nError opening output file bufsize.\\nError opening output files: Invalid argument\\n\")"
      ]
     },
     "execution_count": 32,
     "metadata": {},
     "output_type": "execute_result"
    }
   ],
   "source": [
    "cmd = [\n",
    "    \"ffmpeg\", \"-y\",\n",
    "    \"-i\", input_file,\n",
    "    \"-b:v\", \"256k\",\n",
    "    \"bufsize\", \"64k\", # size of the buffer that smooths spikes, not rly important but cool ig\n",
    "    output_file\n",
    "]\n",
    "print(f\"Running:\", \" \".join(cmd))\n",
    "\n",
    "subprocess.run(\n",
    "    cmd,\n",
    "    stdout = subprocess.PIPE,\n",
    "    stderr = subprocess.PIPE,\n",
    "    text=True\n",
    ")"
   ]
  },
  {
   "cell_type": "markdown",
   "id": "eb677df5",
   "metadata": {},
   "source": [
    "#### -c:v libx264 breakdown\n",
    "- -c:v = choose video codec, libx264. It's supported everywhere because it's hardware accelerated universally supported, fast, and many more reasons\n",
    "- -crf = Constate Rate Factor, name is misleading tho, since it's actually a quality target that controls how aggressively frames are compressed\n",
    "\n",
    "Why does CRF  require -c:fv? cuz CRF is encoder-specific, it has no idea how to apply it if a codec isn't specified"
   ]
  },
  {
   "cell_type": "code",
   "execution_count": 43,
   "id": "39fabaf1",
   "metadata": {},
   "outputs": [
    {
     "data": {
      "text/plain": [
       "CompletedProcess(args=['ffmpeg', '-y', '-i', './test/frieren_clip1.mp4', '-crf', '30', './test/test_frieren_out.mp4'], returncode=0, stdout=b'', stderr=b\"ffmpeg version 8.0-full_build-www.gyan.dev Copyright (c) 2000-2025 the FFmpeg developers\\r\\n  built with gcc 15.2.0 (Rev8, Built by MSYS2 project)\\r\\n  configuration: --enable-gpl --enable-version3 --enable-static --disable-w32threads --disable-autodetect --enable-fontconfig --enable-iconv --enable-gnutls --enable-lcms2 --enable-libxml2 --enable-gmp --enable-bzlib --enable-lzma --enable-libsnappy --enable-zlib --enable-librist --enable-libsrt --enable-libssh --enable-libzmq --enable-avisynth --enable-libbluray --enable-libcaca --enable-libdvdnav --enable-libdvdread --enable-sdl2 --enable-libaribb24 --enable-libaribcaption --enable-libdav1d --enable-libdavs2 --enable-libopenjpeg --enable-libquirc --enable-libuavs3d --enable-libxevd --enable-libzvbi --enable-liboapv --enable-libqrencode --enable-librav1e --enable-libsvtav1 --enable-libvvenc --enable-libwebp --enable-libx264 --enable-libx265 --enable-libxavs2 --enable-libxeve --enable-libxvid --enable-libaom --enable-libjxl --enable-libvpx --enable-mediafoundation --enable-libass --enable-frei0r --enable-libfreetype --enable-libfribidi --enable-libharfbuzz --enable-liblensfun --enable-libvidstab --enable-libvmaf --enable-libzimg --enable-amf --enable-cuda-llvm --enable-cuvid --enable-dxva2 --enable-d3d11va --enable-d3d12va --enable-ffnvcodec --enable-libvpl --enable-nvdec --enable-nvenc --enable-vaapi --enable-libshaderc --enable-vulkan --enable-libplacebo --enable-opencl --enable-libcdio --enable-openal --enable-libgme --enable-libmodplug --enable-libopenmpt --enable-libopencore-amrwb --enable-libmp3lame --enable-libshine --enable-libtheora --enable-libtwolame --enable-libvo-amrwbenc --enable-libcodec2 --enable-libilbc --enable-libgsm --enable-liblc3 --enable-libopencore-amrnb --enable-libopus --enable-libspeex --enable-libvorbis --enable-ladspa --enable-libbs2b --enable-libflite --enable-libmysofa --enable-librubberband --enable-libsoxr --enable-chromaprint --enable-whisper\\r\\n  libavutil      60.  8.100 / 60.  8.100\\r\\n  libavcodec     62. 11.100 / 62. 11.100\\r\\n  libavformat    62.  3.100 / 62.  3.100\\r\\n  libavdevice    62.  1.100 / 62.  1.100\\r\\n  libavfilter    11.  4.100 / 11.  4.100\\r\\n  libswscale      9.  1.100 /  9.  1.100\\r\\n  libswresample   6.  1.100 /  6.  1.100\\r\\nInput #0, mov,mp4,m4a,3gp,3g2,mj2, from './test/frieren_clip1.mp4':\\r\\n  Metadata:\\r\\n    major_brand     : isom\\r\\n    minor_version   : 512\\r\\n    compatible_brands: isomiso2avc1mp41\\r\\n    encoder         : Lavf59.10.100\\r\\n  Duration: 00:00:23.94, start: 0.000000, bitrate: 4636 kb/s\\r\\n  Stream #0:0[0x1](und): Video: h264 (High) (avc1 / 0x31637661), yuv420p(tv, bt709, progressive), 854x480 [SAR 1:1 DAR 427:240], 4634 kb/s, 23.98 fps, 23.98 tbr, 23976 tbn (default)\\r\\n    Metadata:\\r\\n      handler_name    : VideoHandler\\r\\n      vendor_id       : [0][0][0][0]\\r\\nStream mapping:\\r\\n  Stream #0:0 -> #0:0 (h264 (native) -> h264 (libx264))\\r\\nPress [q] to stop, [?] for help\\r\\n[libx264 @ 000001adaff9aec0] using SAR=1/1\\r\\n[libx264 @ 000001adaff9aec0] using cpu capabilities: MMX2 SSE2Fast SSSE3 SSE4.2 AVX FMA3 BMI2 AVX2\\r\\n[libx264 @ 000001adaff9aec0] profile High, level 3.0, 4:2:0, 8-bit\\r\\n[libx264 @ 000001adaff9aec0] 264 - core 165 r3222 b35605a - H.264/MPEG-4 AVC codec - Copyleft 2003-2025 - http://www.videolan.org/x264.html - options: cabac=1 ref=3 deblock=1:0:0 analyse=0x3:0x113 me=hex subme=7 psy=1 psy_rd=1.00:0.00 mixed_ref=1 me_range=16 chroma_me=1 trellis=1 8x8dct=1 cqm=0 deadzone=21,11 fast_pskip=1 chroma_qp_offset=-2 threads=15 lookahead_threads=2 sliced_threads=0 nr=0 decimate=1 interlaced=0 bluray_compat=0 constrained_intra=0 bframes=3 b_pyramid=2 b_adapt=1 b_bias=0 direct=1 weightb=1 open_gop=0 weightp=2 keyint=250 keyint_min=23 scenecut=40 intra_refresh=0 rc_lookahead=40 rc=crf mbtree=1 crf=30.0 qcomp=0.60 qpmin=0 qpmax=69 qpstep=4 ip_ratio=1.40 aq=1:1.00\\r\\nOutput #0, mp4, to './test/test_frieren_out.mp4':\\r\\n  Metadata:\\r\\n    major_brand     : isom\\r\\n    minor_version   : 512\\r\\n    compatible_brands: isomiso2avc1mp41\\r\\n    encoder         : Lavf62.3.100\\r\\n  Stream #0:0(und): Video: h264 (avc1 / 0x31637661), yuv420p(tv, bt709, progressive), 854x480 [SAR 1:1 DAR 427:240], q=2-31, 23.98 fps, 11988 tbn (default)\\r\\n    Metadata:\\r\\n      encoder         : Lavc62.11.100 libx264\\r\\n      handler_name    : VideoHandler\\r\\n      vendor_id       : [0][0][0][0]\\r\\n    Side data:\\r\\n      cpb: bitrate max/min/avg: 0/0/0 buffer size: 0 vbv_delay: N/A\\r\\nframe=  151 fps=0.0 q=35.0 size=     512KiB time=00:00:06.21 bitrate= 675.0kbits/s speed=12.2x elapsed=0:00:00.51    \\rframe=  392 fps=382 q=35.0 size=    1280KiB time=00:00:16.26 bitrate= 644.7kbits/s speed=15.9x elapsed=0:00:01.02    \\r[out#0/mp4 @ 000001adaf8d8a80] video:1421KiB audio:0KiB subtitle:0KiB other streams:0KiB global headers:0KiB muxing overhead: 0.444235%\\r\\nframe=  574 fps=478 q=-1.0 Lsize=    1428KiB time=00:00:23.85 bitrate= 490.3kbits/s speed=19.9x elapsed=0:00:01.20    \\r\\n[libx264 @ 000001adaff9aec0] frame I:26    Avg QP:27.30  size: 10518\\r\\n[libx264 @ 000001adaff9aec0] frame P:293   Avg QP:28.94  size:  2562\\r\\n[libx264 @ 000001adaff9aec0] frame B:255   Avg QP:31.38  size:  1689\\r\\n[libx264 @ 000001adaff9aec0] consecutive B-frames: 34.8% 15.0%  8.4% 41.8%\\r\\n[libx264 @ 000001adaff9aec0] mb I  I16..4: 31.1% 56.1% 12.8%\\r\\n[libx264 @ 000001adaff9aec0] mb P  I16..4:  7.5% 13.5%  2.1%  P16..4: 10.8%  1.8%  0.8%  0.0%  0.0%    skip:63.5%\\r\\n[libx264 @ 000001adaff9aec0] mb B  I16..4:  3.4%  3.1%  0.4%  B16..8: 17.5%  1.5%  0.3%  direct: 3.5%  skip:70.3%  L0:46.3% L1:51.1% BI: 2.6%\\r\\n[libx264 @ 000001adaff9aec0] 8x8 transform intra:55.7% inter:75.7%\\r\\n[libx264 @ 000001adaff9aec0] coded y,uvDC,uvAC intra: 23.1% 52.0% 14.8% inter: 3.9% 8.4% 0.1%\\r\\n[libx264 @ 000001adaff9aec0] i16 v,h,dc,p: 35% 33% 12% 20%\\r\\n[libx264 @ 000001adaff9aec0] i8 v,h,dc,ddl,ddr,vr,hd,vl,hu: 22% 15% 39%  5%  3%  4%  4%  4%  4%\\r\\n[libx264 @ 000001adaff9aec0] i4 v,h,dc,ddl,ddr,vr,hd,vl,hu: 25% 17% 25%  7%  6%  6%  5%  5%  4%\\r\\n[libx264 @ 000001adaff9aec0] i8c dc,h,v,p: 59% 21% 15%  5%\\r\\n[libx264 @ 000001adaff9aec0] Weighted P-Frames: Y:8.9% UV:8.5%\\r\\n[libx264 @ 000001adaff9aec0] ref P L0: 60.9% 16.8% 16.1%  5.7%  0.5%\\r\\n[libx264 @ 000001adaff9aec0] ref B L0: 87.4% 10.1%  2.6%\\r\\n[libx264 @ 000001adaff9aec0] ref B L1: 97.4%  2.6%\\r\\n[libx264 @ 000001adaff9aec0] kb/s:486.15\\r\\n\")"
      ]
     },
     "execution_count": 43,
     "metadata": {},
     "output_type": "execute_result"
    }
   ],
   "source": [
    "cmd = [\n",
    "    \"ffmpeg\", \"-y\",\n",
    "    \"-i\", input_file,\n",
    "    \"-crf\", \"30\",\n",
    "    output_file\n",
    "]\n",
    "\n",
    "subprocess.run(\n",
    "    cmd,\n",
    "    stdout=subprocess.PIPE,\n",
    "    stderr=subprocess.PIPE\n",
    ")"
   ]
  },
  {
   "cell_type": "code",
   "execution_count": 11,
   "id": "b348ee74",
   "metadata": {},
   "outputs": [
    {
     "data": {
      "text/plain": [
       "CompletedProcess(args=['ffmpeg', '-y', '-i', './test/frieren_clip1.mp4', '-ss', '3', '-to', '5', './test/test_frieren_out.mp4'], returncode=0, stdout=b'', stderr=b\"ffmpeg version 8.0-full_build-www.gyan.dev Copyright (c) 2000-2025 the FFmpeg developers\\r\\n  built with gcc 15.2.0 (Rev8, Built by MSYS2 project)\\r\\n  configuration: --enable-gpl --enable-version3 --enable-static --disable-w32threads --disable-autodetect --enable-fontconfig --enable-iconv --enable-gnutls --enable-lcms2 --enable-libxml2 --enable-gmp --enable-bzlib --enable-lzma --enable-libsnappy --enable-zlib --enable-librist --enable-libsrt --enable-libssh --enable-libzmq --enable-avisynth --enable-libbluray --enable-libcaca --enable-libdvdnav --enable-libdvdread --enable-sdl2 --enable-libaribb24 --enable-libaribcaption --enable-libdav1d --enable-libdavs2 --enable-libopenjpeg --enable-libquirc --enable-libuavs3d --enable-libxevd --enable-libzvbi --enable-liboapv --enable-libqrencode --enable-librav1e --enable-libsvtav1 --enable-libvvenc --enable-libwebp --enable-libx264 --enable-libx265 --enable-libxavs2 --enable-libxeve --enable-libxvid --enable-libaom --enable-libjxl --enable-libvpx --enable-mediafoundation --enable-libass --enable-frei0r --enable-libfreetype --enable-libfribidi --enable-libharfbuzz --enable-liblensfun --enable-libvidstab --enable-libvmaf --enable-libzimg --enable-amf --enable-cuda-llvm --enable-cuvid --enable-dxva2 --enable-d3d11va --enable-d3d12va --enable-ffnvcodec --enable-libvpl --enable-nvdec --enable-nvenc --enable-vaapi --enable-libshaderc --enable-vulkan --enable-libplacebo --enable-opencl --enable-libcdio --enable-openal --enable-libgme --enable-libmodplug --enable-libopenmpt --enable-libopencore-amrwb --enable-libmp3lame --enable-libshine --enable-libtheora --enable-libtwolame --enable-libvo-amrwbenc --enable-libcodec2 --enable-libilbc --enable-libgsm --enable-liblc3 --enable-libopencore-amrnb --enable-libopus --enable-libspeex --enable-libvorbis --enable-ladspa --enable-libbs2b --enable-libflite --enable-libmysofa --enable-librubberband --enable-libsoxr --enable-chromaprint --enable-whisper\\r\\n  libavutil      60.  8.100 / 60.  8.100\\r\\n  libavcodec     62. 11.100 / 62. 11.100\\r\\n  libavformat    62.  3.100 / 62.  3.100\\r\\n  libavdevice    62.  1.100 / 62.  1.100\\r\\n  libavfilter    11.  4.100 / 11.  4.100\\r\\n  libswscale      9.  1.100 /  9.  1.100\\r\\n  libswresample   6.  1.100 /  6.  1.100\\r\\nInput #0, mov,mp4,m4a,3gp,3g2,mj2, from './test/frieren_clip1.mp4':\\r\\n  Metadata:\\r\\n    major_brand     : isom\\r\\n    minor_version   : 512\\r\\n    compatible_brands: isomiso2avc1mp41\\r\\n    encoder         : Lavf59.10.100\\r\\n  Duration: 00:00:23.94, start: 0.000000, bitrate: 4636 kb/s\\r\\n  Stream #0:0[0x1](und): Video: h264 (High) (avc1 / 0x31637661), yuv420p(tv, bt709, progressive), 854x480 [SAR 1:1 DAR 427:240], 4634 kb/s, 23.98 fps, 23.98 tbr, 23976 tbn (default)\\r\\n    Metadata:\\r\\n      handler_name    : VideoHandler\\r\\n      vendor_id       : [0][0][0][0]\\r\\nStream mapping:\\r\\n  Stream #0:0 -> #0:0 (h264 (native) -> h264 (libx264))\\r\\nPress [q] to stop, [?] for help\\r\\n[libx264 @ 00000296330d1840] using SAR=1/1\\r\\n[libx264 @ 00000296330d1840] using cpu capabilities: MMX2 SSE2Fast SSSE3 SSE4.2 AVX FMA3 BMI2 AVX2\\r\\n[libx264 @ 00000296330d1840] profile High, level 3.0, 4:2:0, 8-bit\\r\\n[libx264 @ 00000296330d1840] 264 - core 165 r3222 b35605a - H.264/MPEG-4 AVC codec - Copyleft 2003-2025 - http://www.videolan.org/x264.html - options: cabac=1 ref=3 deblock=1:0:0 analyse=0x3:0x113 me=hex subme=7 psy=1 psy_rd=1.00:0.00 mixed_ref=1 me_range=16 chroma_me=1 trellis=1 8x8dct=1 cqm=0 deadzone=21,11 fast_pskip=1 chroma_qp_offset=-2 threads=15 lookahead_threads=2 sliced_threads=0 nr=0 decimate=1 interlaced=0 bluray_compat=0 constrained_intra=0 bframes=3 b_pyramid=2 b_adapt=1 b_bias=0 direct=1 weightb=1 open_gop=0 weightp=2 keyint=250 keyint_min=23 scenecut=40 intra_refresh=0 rc_lookahead=40 rc=crf mbtree=1 crf=23.0 qcomp=0.60 qpmin=0 qpmax=69 qpstep=4 ip_ratio=1.40 aq=1:1.00\\r\\nOutput #0, mp4, to './test/test_frieren_out.mp4':\\r\\n  Metadata:\\r\\n    major_brand     : isom\\r\\n    minor_version   : 512\\r\\n    compatible_brands: isomiso2avc1mp41\\r\\n    encoder         : Lavf62.3.100\\r\\n  Stream #0:0(und): Video: h264 (avc1 / 0x31637661), yuv420p(tv, bt709, progressive), 854x480 [SAR 1:1 DAR 427:240], q=2-31, 23.98 fps, 11988 tbn (default)\\r\\n    Metadata:\\r\\n      encoder         : Lavc62.11.100 libx264\\r\\n      handler_name    : VideoHandler\\r\\n      vendor_id       : [0][0][0][0]\\r\\n    Side data:\\r\\n      cpb: bitrate max/min/avg: 0/0/0 buffer size: 0 vbv_delay: N/A\\r\\n[out#0/mp4 @ 00000296330ba9c0] video:544KiB audio:0KiB subtitle:0KiB other streams:0KiB global headers:0KiB muxing overhead: 0.255248%\\r\\nframe=   48 fps=0.0 q=-1.0 Lsize=     545KiB time=00:00:01.91 bitrate=2328.9kbits/s speed=6.95x elapsed=0:00:00.27    \\r\\n[libx264 @ 00000296330d1840] frame I:5     Avg QP:21.58  size: 20445\\r\\n[libx264 @ 00000296330d1840] frame P:18    Avg QP:23.82  size: 13313\\r\\n[libx264 @ 00000296330d1840] frame B:25    Avg QP:24.40  size:  8582\\r\\n[libx264 @ 00000296330d1840] consecutive B-frames: 20.8% 25.0% 12.5% 41.7%\\r\\n[libx264 @ 00000296330d1840] mb I  I16..4: 21.6% 58.3% 20.1%\\r\\n[libx264 @ 00000296330d1840] mb P  I16..4: 17.3% 36.5% 11.5%  P16..4: 23.0%  6.0%  2.8%  0.0%  0.0%    skip: 2.9%\\r\\n[libx264 @ 00000296330d1840] mb B  I16..4:  8.5% 11.4%  3.8%  B16..8: 27.2%  6.6%  1.6%  direct:14.8%  skip:26.1%  L0:50.8% L1:42.7% BI: 6.6%\\r\\n[libx264 @ 00000296330d1840] 8x8 transform intra:54.4% inter:75.2%\\r\\n[libx264 @ 00000296330d1840] coded y,uvDC,uvAC intra: 38.4% 74.5% 29.8% inter: 25.2% 55.6% 2.8%\\r\\n[libx264 @ 00000296330d1840] i16 v,h,dc,p: 35% 29% 11% 25%\\r\\n[libx264 @ 00000296330d1840] i8 v,h,dc,ddl,ddr,vr,hd,vl,hu: 24% 17% 32%  4%  5%  4%  6%  4%  4%\\r\\n[libx264 @ 00000296330d1840] i4 v,h,dc,ddl,ddr,vr,hd,vl,hu: 25% 15% 20%  7%  8%  7%  6%  7%  4%\\r\\n[libx264 @ 00000296330d1840] i8c dc,h,v,p: 51% 22% 19%  9%\\r\\n[libx264 @ 00000296330d1840] Weighted P-Frames: Y:22.2% UV:22.2%\\r\\n[libx264 @ 00000296330d1840] ref P L0: 58.2% 18.8% 18.8%  3.5%  0.6%\\r\\n[libx264 @ 00000296330d1840] ref B L0: 87.5% 10.3%  2.2%\\r\\n[libx264 @ 00000296330d1840] ref B L1: 97.2%  2.8%\\r\\n[libx264 @ 00000296330d1840] kb/s:2223.43\\r\\n\")"
      ]
     },
     "execution_count": 11,
     "metadata": {},
     "output_type": "execute_result"
    }
   ],
   "source": [
    "cmd = [\n",
    "    \"ffmpeg\", \"-y\",\n",
    "    \"-i\", input_file,\n",
    "    \"-ss\", \"3\",\n",
    "    \"-to\", \"5\",\n",
    "    output_file\n",
    "]\n",
    "\n",
    "subprocess.run(\n",
    "    cmd,\n",
    "    stdout = subprocess.PIPE,\n",
    "    stderr = subprocess.PIPE,\n",
    ")"
   ]
  },
  {
   "cell_type": "markdown",
   "id": "425af227",
   "metadata": {},
   "source": [
    "#### Learning openCV"
   ]
  },
  {
   "cell_type": "code",
   "execution_count": 3,
   "id": "6bc3214b",
   "metadata": {},
   "outputs": [
    {
     "name": "stdout",
     "output_type": "stream",
     "text": [
      "<class 'numpy.ndarray'>\n",
      "(480, 854, 3)\n",
      "[[[103  50  30]\n",
      "  [104  51  31]\n",
      "  [100  50  29]\n",
      "  ...\n",
      "  [173 120  95]\n",
      "  [172 125  94]\n",
      "  [169 122  91]]\n",
      "\n",
      " [[ 98  45  25]\n",
      "  [103  50  30]\n",
      "  [101  51  30]\n",
      "  ...\n",
      "  [171 118  93]\n",
      "  [178 131 100]\n",
      "  [172 125  94]]\n",
      "\n",
      " [[ 88  44  24]\n",
      "  [ 92  48  28]\n",
      "  [ 94  50  30]\n",
      "  ...\n",
      "  [158 105  80]\n",
      "  [174 127  96]\n",
      "  [172 125  94]]\n",
      "\n",
      " ...\n",
      "\n",
      " [[162 103  47]\n",
      "  [166 107  51]\n",
      "  [166 107  51]\n",
      "  ...\n",
      "  [176 126  91]\n",
      "  [179 129  94]\n",
      "  [177 127  92]]\n",
      "\n",
      " [[157  98  42]\n",
      "  [164 105  49]\n",
      "  [166 107  51]\n",
      "  ...\n",
      "  [179 129  94]\n",
      "  [182 132  97]\n",
      "  [178 128  93]]\n",
      "\n",
      " [[162 103  47]\n",
      "  [164 105  49]\n",
      "  [161 102  46]\n",
      "  ...\n",
      "  [179 129  94]\n",
      "  [180 130  95]\n",
      "  [177 127  92]]]\n"
     ]
    }
   ],
   "source": [
    "import cv2\n",
    "\n",
    "cap = cv2.VideoCapture(\"./test/frieren_clip1.mp4\")\n",
    "\"\"\"Creates a video capture object:\n",
    "- OpenCV opens the video file\n",
    "- Prepares an internal decoder\n",
    "- Gets ready to read frames sequentially\n",
    "It basically connects to the video\"\"\"\n",
    "\n",
    "\n",
    "ret, frame = cap.read()\n",
    "\"\"\"1. OpenCV decodes the next frames\n",
    "   2. Stores the pixel data in frame\n",
    "   3. Sets ret to: True -> frame read successfully, False otherwise\n",
    "   FRAME: The frame you're working with\"\"\"\n",
    "\n",
    "\n",
    "if not ret:\n",
    "    print(f\"Failed to read frame\")\n",
    "\n",
    "print(type(frame))\n",
    "print(frame.shape)\n",
    "print(frame)"
   ]
  },
  {
   "cell_type": "code",
   "execution_count": 4,
   "id": "6349a97e",
   "metadata": {},
   "outputs": [],
   "source": [
    "\"\"\"Calculating mean for scenes and appending to txt\"\"\"\n",
    "import numpy as np\n",
    "import os\n",
    "cap = cv2.VideoCapture(\"./test/frieren_clip1.mp4\")\n",
    "fps = cap.get(cv2.CAP_PROP_FPS)\n",
    "width = int(cap.get(cv2.CAP_PROP_FRAME_WIDTH))\n",
    "height = int(cap.get(cv2.CAP_PROP_FRAME_HEIGHT))\n",
    "frameNum = 1\n",
    "sec = 0\n",
    "\n",
    "out = cv2.VideoWriter(\n",
    "    \"./test/edges.mp4\",\n",
    "    cv2.VideoWriter_fourcc(*\"mp4v\"),\n",
    "    fps,\n",
    "    (width, height),\n",
    "    isColor=True\n",
    ")\n",
    "\n",
    "with open(\"frame.txt\", \"w\") as f:\n",
    "    pass\n",
    "with open(\"frame.txt\", \"a\") as f:\n",
    "    while True:\n",
    "        ret, frame = cap.read()\n",
    "        if frameNum == 24:\n",
    "            sec += 1\n",
    "            frameNum = 0\n",
    "        if not ret:\n",
    "            break # if we have no more frames\n",
    "        gray = cv2.cvtColor(frame, cv2.COLOR_BGR2GRAY) # grayscale data\n",
    "        edges = cv2.Canny(gray, 50, 100)               # edgedetect data\n",
    "\n",
    "        edges_bgr = cv2.cvtColor(edges, cv2.COLOR_GRAY2BGR)\n",
    "\n",
    "        mean_val = edges.mean()\n",
    "        # print(f\"FRAME #{i}: {mean_val}\")\n",
    "        f.write(f\"{sec}:{frameNum}: {mean_val}\\n\")\n",
    "        \n",
    "        out.write(edges_bgr)\n",
    "        frameNum += 1\n",
    "\n",
    "cap.release()\n",
    "out.release()"
   ]
  },
  {
   "cell_type": "code",
   "execution_count": null,
   "id": "38ea0cea",
   "metadata": {},
   "outputs": [
    {
     "data": {
      "text/plain": [
       "CompletedProcess(args=['ffmpeg', '-y', '-i', './test/frieren_clip1.mp4', '-vf', \"drawtext=text='Frame %{means[0]}': x=20:y=20:fontsize=24:fontcolor=white\", './test/test_frieren_out.mp4'], returncode=0, stdout=b'', stderr=b\"ffmpeg version 8.0-full_build-www.gyan.dev Copyright (c) 2000-2025 the FFmpeg developers\\r\\n  built with gcc 15.2.0 (Rev8, Built by MSYS2 project)\\r\\n  configuration: --enable-gpl --enable-version3 --enable-static --disable-w32threads --disable-autodetect --enable-fontconfig --enable-iconv --enable-gnutls --enable-lcms2 --enable-libxml2 --enable-gmp --enable-bzlib --enable-lzma --enable-libsnappy --enable-zlib --enable-librist --enable-libsrt --enable-libssh --enable-libzmq --enable-avisynth --enable-libbluray --enable-libcaca --enable-libdvdnav --enable-libdvdread --enable-sdl2 --enable-libaribb24 --enable-libaribcaption --enable-libdav1d --enable-libdavs2 --enable-libopenjpeg --enable-libquirc --enable-libuavs3d --enable-libxevd --enable-libzvbi --enable-liboapv --enable-libqrencode --enable-librav1e --enable-libsvtav1 --enable-libvvenc --enable-libwebp --enable-libx264 --enable-libx265 --enable-libxavs2 --enable-libxeve --enable-libxvid --enable-libaom --enable-libjxl --enable-libvpx --enable-mediafoundation --enable-libass --enable-frei0r --enable-libfreetype --enable-libfribidi --enable-libharfbuzz --enable-liblensfun --enable-libvidstab --enable-libvmaf --enable-libzimg --enable-amf --enable-cuda-llvm --enable-cuvid --enable-dxva2 --enable-d3d11va --enable-d3d12va --enable-ffnvcodec --enable-libvpl --enable-nvdec --enable-nvenc --enable-vaapi --enable-libshaderc --enable-vulkan --enable-libplacebo --enable-opencl --enable-libcdio --enable-openal --enable-libgme --enable-libmodplug --enable-libopenmpt --enable-libopencore-amrwb --enable-libmp3lame --enable-libshine --enable-libtheora --enable-libtwolame --enable-libvo-amrwbenc --enable-libcodec2 --enable-libilbc --enable-libgsm --enable-liblc3 --enable-libopencore-amrnb --enable-libopus --enable-libspeex --enable-libvorbis --enable-ladspa --enable-libbs2b --enable-libflite --enable-libmysofa --enable-librubberband --enable-libsoxr --enable-chromaprint --enable-whisper\\r\\n  libavutil      60.  8.100 / 60.  8.100\\r\\n  libavcodec     62. 11.100 / 62. 11.100\\r\\n  libavformat    62.  3.100 / 62.  3.100\\r\\n  libavdevice    62.  1.100 / 62.  1.100\\r\\n  libavfilter    11.  4.100 / 11.  4.100\\r\\n  libswscale      9.  1.100 /  9.  1.100\\r\\n  libswresample   6.  1.100 /  6.  1.100\\r\\nInput #0, mov,mp4,m4a,3gp,3g2,mj2, from './test/frieren_clip1.mp4':\\r\\n  Metadata:\\r\\n    major_brand     : isom\\r\\n    minor_version   : 512\\r\\n    compatible_brands: isomiso2avc1mp41\\r\\n    encoder         : Lavf59.10.100\\r\\n  Duration: 00:00:23.94, start: 0.000000, bitrate: 4636 kb/s\\r\\n  Stream #0:0[0x1](und): Video: h264 (High) (avc1 / 0x31637661), yuv420p(tv, bt709, progressive), 854x480 [SAR 1:1 DAR 427:240], 4634 kb/s, 23.98 fps, 23.98 tbr, 23976 tbn (default)\\r\\n    Metadata:\\r\\n      handler_name    : VideoHandler\\r\\n      vendor_id       : [0][0][0][0]\\r\\nFontconfig error: Cannot load default config file: No such file: (null)\\r\\nFontconfig error: Cannot load default config file: No such file: (null)\\r\\nStream mapping:\\r\\n  Stream #0:0 -> #0:0 (h264 (native) -> h264 (libx264))\\r\\nPress [q] to stop, [?] for help\\r\\nFontconfig error: Cannot load default config file: No such file: (null)\\r\\n[Parsed_drawtext_0 @ 000001f9f8370300] %{means[0]} is not known\\r\\n[libx264 @ 000001f9f6f76380] using SAR=1/1\\r\\n[libx264 @ 000001f9f6f76380] using cpu capabilities: MMX2 SSE2Fast SSSE3 SSE4.2 AVX FMA3 BMI2 AVX2\\r\\n[libx264 @ 000001f9f6f76380] profile High, level 3.0, 4:2:0, 8-bit\\r\\n[libx264 @ 000001f9f6f76380] 264 - core 165 r3222 b35605a - H.264/MPEG-4 AVC codec - Copyleft 2003-2025 - http://www.videolan.org/x264.html - options: cabac=1 ref=3 deblock=1:0:0 analyse=0x3:0x113 me=hex subme=7 psy=1 psy_rd=1.00:0.00 mixed_ref=1 me_range=16 chroma_me=1 trellis=1 8x8dct=1 cqm=0 deadzone=21,11 fast_pskip=1 chroma_qp_offset=-2 threads=15 lookahead_threads=2 sliced_threads=0 nr=0 decimate=1 interlaced=0 bluray_compat=0 constrained_intra=0 bframes=3 b_pyramid=2 b_adapt=1 b_bias=0 direct=1 weightb=1 open_gop=0 weightp=2 keyint=250 keyint_min=23 scenecut=40 intra_refresh=0 rc_lookahead=40 rc=crf mbtree=1 crf=23.0 qcomp=0.60 qpmin=0 qpmax=69 qpstep=4 ip_ratio=1.40 aq=1:1.00\\r\\nOutput #0, mp4, to './test/test_frieren_out.mp4':\\r\\n  Metadata:\\r\\n    major_brand     : isom\\r\\n    minor_version   : 512\\r\\n    compatible_brands: isomiso2avc1mp41\\r\\n    encoder         : Lavf62.3.100\\r\\n  Stream #0:0(und): Video: h264 (avc1 / 0x31637661), yuv420p(tv, bt709, progressive), 854x480 [SAR 1:1 DAR 427:240], q=2-31, 23.98 fps, 11988 tbn (default)\\r\\n    Metadata:\\r\\n      encoder         : Lavc62.11.100 libx264\\r\\n      handler_name    : VideoHandler\\r\\n      vendor_id       : [0][0][0][0]\\r\\n    Side data:\\r\\n      cpb: bitrate max/min/avg: 0/0/0 buffer size: 0 vbv_delay: N/A\\r\\n[Parsed_drawtext_0 @ 000001f9f8370300] %{means[0]} is not known\\r\\n    Last message repeated 189 times\\r\\nframe=  120 fps=0.0 q=28.0 size=    1024KiB time=00:00:05.00 bitrate=1676.1kbits/s speed=9.75x elapsed=0:00:00.51    \\r[Parsed_drawtext_0 @ 000001f9f8370300] %{means[0]} is not known\\r\\n    Last message repeated 155 times\\r\\nframe=  278 fps=269 q=28.0 size=    2816KiB time=00:00:11.51 bitrate=2004.0kbits/s speed=11.1x elapsed=0:00:01.03    \\r[Parsed_drawtext_0 @ 000001f9f8370300] %{means[0]} is not known\\r\\n    Last message repeated 226 times\\r\\n[out#0/mp4 @ 000001f9f6f6ad80] video:3505KiB audio:0KiB subtitle:0KiB other streams:0KiB global headers:0KiB muxing overhead: 0.181050%\\r\\nframe=  574 fps=391 q=-1.0 Lsize=    3511KiB time=00:00:23.85 bitrate=1205.7kbits/s speed=16.2x elapsed=0:00:01.46    \\r\\n[libx264 @ 000001f9f6f76380] frame I:26    Avg QP:20.23  size: 24686\\r\\n[libx264 @ 000001f9f6f76380] frame P:293   Avg QP:21.80  size:  6266\\r\\n[libx264 @ 000001f9f6f76380] frame B:255   Avg QP:23.24  size:  4355\\r\\n[libx264 @ 000001f9f6f76380] consecutive B-frames: 34.8% 15.0%  8.4% 41.8%\\r\\n[libx264 @ 000001f9f6f76380] mb I  I16..4: 16.3% 63.9% 19.8%\\r\\n[libx264 @ 000001f9f6f76380] mb P  I16..4:  6.1% 14.6%  4.1%  P16..4: 20.7%  4.3%  3.2%  0.0%  0.0%    skip:47.0%\\r\\n[libx264 @ 000001f9f6f76380] mb B  I16..4:  4.1%  4.9%  1.3%  B16..8: 24.6%  3.2%  0.8%  direct: 8.4%  skip:52.7%  L0:44.8% L1:50.9% BI: 4.3%\\r\\n[libx264 @ 000001f9f6f76380] 8x8 transform intra:57.5% inter:77.5%\\r\\n[libx264 @ 000001f9f6f76380] coded y,uvDC,uvAC intra: 43.1% 73.5% 31.7% inter: 10.9% 21.5% 1.0%\\r\\n[libx264 @ 000001f9f6f76380] i16 v,h,dc,p: 35% 33% 10% 23%\\r\\n[libx264 @ 000001f9f6f76380] i8 v,h,dc,ddl,ddr,vr,hd,vl,hu: 23% 20% 28%  5%  4%  4%  5%  4%  5%\\r\\n[libx264 @ 000001f9f6f76380] i4 v,h,dc,ddl,ddr,vr,hd,vl,hu: 24% 17% 19%  8%  7%  7%  6%  6%  5%\\r\\n[libx264 @ 000001f9f6f76380] i8c dc,h,v,p: 49% 24% 18%  9%\\r\\n[libx264 @ 000001f9f6f76380] Weighted P-Frames: Y:8.9% UV:8.5%\\r\\n[libx264 @ 000001f9f6f76380] ref P L0: 69.0% 12.0% 14.0%  4.8%  0.3%\\r\\n[libx264 @ 000001f9f6f76380] ref B L0: 88.3%  9.5%  2.2%\\r\\n[libx264 @ 000001f9f6f76380] ref B L1: 96.9%  3.1%\\r\\n[libx264 @ 000001f9f6f76380] kb/s:1199.09\\r\\n\")"
      ]
     },
     "execution_count": 8,
     "metadata": {},
     "output_type": "execute_result"
    }
   ],
   "source": [
    "cmd = [\n",
    "    \"ffmpeg\", \"-y\",\n",
    "    \"-i\", input_file,\n",
    "    \"-vf\", \"drawtext=text='Frame %{means[0]}': x=20:y=20:fontsize=24:fontcolor=white\",\n",
    "    output_file\n",
    "]\n",
    "\n",
    "subprocess.run(\n",
    "    cmd,\n",
    "    stdout=subprocess.PIPE,\n",
    "    stderr=subprocess.PIPE\n",
    ")"
   ]
  },
  {
   "cell_type": "code",
   "execution_count": 13,
   "id": "7aa3532b",
   "metadata": {},
   "outputs": [],
   "source": [
    "#### Find difference between two scenes\n",
    "\n",
    "def find_difference(frame1, frame2, threshold):\n",
    "    difference = abs(frame2 - frame1)\n",
    "    if difference > threshold:\n",
    "        return True\n",
    "    return False\n",
    "\n",
    "def read_frames(input_file, threshold):\n",
    "    cap = cv2.VideoCapture(input_file)\n",
    "    fps = cap.get(cv2.CAP_PROP_FPS)\n",
    "    width = int(cap.get(cv2.CAP_PROP_FRAME_WIDTH))\n",
    "    height = int(cap.get(cv2.CAP_PROP_FRAME_HEIGHT))\n",
    "\n",
    "    with open(\"frame.txt\", \"w\") as f:\n",
    "        pass\n",
    "    \n",
    "    prev = None\n",
    "    frameNum = 1\n",
    "    sec = 0\n",
    "    with open(\"frame.txt\", \"a\") as f:\n",
    "        while True:\n",
    "            ret, frame = cap.read()\n",
    "            if frameNum == 24:\n",
    "                sec += 1\n",
    "                frameNum = 0\n",
    "            if not ret:\n",
    "                break # if we have no more frames\n",
    "            gray = cv2.cvtColor(frame, cv2.COLOR_BGR2GRAY) # grayscale data (not doing this one rn)\n",
    "            edges = cv2.Canny(gray, 50, 100)               # edgedetect data\n",
    "\n",
    "            edges_bgr = cv2.cvtColor(edges, cv2.COLOR_GRAY2BGR)\n",
    "\n",
    "            mean_val = gray.mean()\n",
    "            # print(f\"FRAME #{i}: {mean_val}\")\n",
    "            f.write(f\"{sec}:{frameNum}: {mean_val}\")\n",
    "            \n",
    "            # Calculate difference between previous frame\n",
    "            if prev:\n",
    "                sceneDetected = find_difference(prev, mean_val, threshold) # T/F\n",
    "\n",
    "                if sceneDetected:\n",
    "                    f.write(f\"  |  DETECTED\")\n",
    "\n",
    "            out.write(edges_bgr)\n",
    "\n",
    "            f.write(\"\\n\")\n",
    "            frameNum += 1\n",
    "            prev = mean_val\n",
    "        \n",
    "\n",
    "read_frames(input_file=input_file,\n",
    "            threshold=2.7)"
   ]
  },
  {
   "cell_type": "code",
   "execution_count": null,
   "id": "2a40f9c1",
   "metadata": {},
   "outputs": [],
   "source": []
  }
 ],
 "metadata": {
  "kernelspec": {
   "display_name": "venv",
   "language": "python",
   "name": "python3"
  },
  "language_info": {
   "codemirror_mode": {
    "name": "ipython",
    "version": 3
   },
   "file_extension": ".py",
   "mimetype": "text/x-python",
   "name": "python",
   "nbconvert_exporter": "python",
   "pygments_lexer": "ipython3",
   "version": "3.13.5"
  }
 },
 "nbformat": 4,
 "nbformat_minor": 5
}
